<svg height="2126" width="720" xmlns="http://www.w3.org/2000/svg">
<rect height="2126" fill="#555" width="720"></rect>
<text fill="#7f7" font-family="Courier New" font-size="12" xml:space="preserve">
<tspan x="10" y="26"></tspan>
<tspan x="10" y="42">&gt; npmdoc-sql.js@0.0.1 test /home/travis/build/npmdoc/node-npmdoc-sql.js</tspan>
<tspan x="10" y="58">&gt; (set -e; export PORT=$(utility2 shServerPortRandom); utility2 test test.js)</tspan>
<tspan x="10" y="74"></tspan>
<tspan x="10" y="90"></tspan>
<tspan x="10" y="106">[MODE_BUILD=npmTest] - 2017-04-07T12:47:55Z - npm-testing /home/travis/build/npmdoc/node-npmdoc-\</tspan>
<tspan x="10" y="122">sql.js</tspan>
<tspan x="10" y="138"></tspan>
<tspan x="10" y="154"></tspan>
<tspan x="10" y="170">covering $ /home/travis/.nvm/versions/node/v6.10.2/bin/node /home/travis/build/npmdoc/node-npmdo\</tspan>
<tspan x="10" y="186">c-sql.js/test.js</tspan>
<tspan x="10" y="202">merging file:///home/travis/build/npmdoc/node-npmdoc-sql.js/tmp/build/test-report.json to test-r\</tspan>
<tspan x="10" y="218">eport</tspan>
<tspan x="10" y="234">&gt; server listening on http-port 46559</tspan>
<tspan x="10" y="250">Require: 318 ms</tspan>
<tspan x="10" y="266">Empty database creation: 39 ms</tspan>
<tspan x="10" y="282">Create table: 180 ms</tspan>
<tspan x="10" y="298">INSERT: 15 ms</tspan>
<tspan x="10" y="314">SELECT: 4 ms</tspan>
<tspan x="10" y="330">created apidoc file:///home/travis/build/npmdoc/node-npmdoc-sql.js/tmp/build/apidoc.html</tspan>
<tspan x="10" y="346"></tspan>
<tspan x="10" y="362"></tspan>
<tspan x="10" y="378">browserTest - created electron entry-page /home/travis/build/npmdoc/node-npmdoc-sql.js/tmp/elect\</tspan>
<tspan x="10" y="394">ron.15b4874feb30.63e808cae3b42.html</tspan>
<tspan x="10" y="410"></tspan>
<tspan x="10" y="426">Xlib:  extension "RANDR" missing on display ":99.0".</tspan>
<tspan x="10" y="442">merging file:///home/travis/build/npmdoc/node-npmdoc-sql.js/tmp/build/test-report.json to test-r\</tspan>
<tspan x="10" y="458">eport</tspan>
<tspan x="10" y="474">Xlib:  extension "RANDR" missing on display ":99.0".</tspan>
<tspan x="10" y="490">[4918:0407/124759:WARNING:audio_manager.cc(314)] Multiple instances of AudioManager detected</tspan>
<tspan x="10" y="506">[4918:0407/124759:WARNING:audio_manager.cc(275)] Multiple instances of AudioManager detected</tspan>
<tspan x="10" y="522">[4936:0407/124759:ERROR:sandbox_linux.cc(343)] InitializeSandbox() called with multiple threads \</tspan>
<tspan x="10" y="538">in process gpu-process. </tspan>
<tspan x="10" y="554">[4918:0407/124759:ERROR:browser_gpu_channel_host_factory.cc(131)] Failed to create channel.</tspan>
<tspan x="10" y="570"></tspan>
<tspan x="10" y="586">browserTest - opened url /home/travis/build/npmdoc/node-npmdoc-sql.js/tmp/build/apidoc.html</tspan>
<tspan x="10" y="602"></tspan>
<tspan x="10" y="618">[node test-case 1 of 6 passed] - testCase_buildLib_default</tspan>
<tspan x="10" y="634">[node test-case 2 of 6 passed] - testCase_buildReadme_default</tspan>
<tspan x="10" y="650">[node test-case 3 of 6 passed] - testCase_buildTest_default</tspan>
<tspan x="10" y="666"></tspan>
<tspan x="10" y="682">browserTest - created electron entry-page /home/travis/build/npmdoc/node-npmdoc-sql.js/tmp/elect\</tspan>
<tspan x="10" y="698">ron.15b487503820.af6fdbd17fdde.html</tspan>
<tspan x="10" y="714"></tspan>
<tspan x="10" y="730">Xlib:  extension "RANDR" missing on display ":99.0".</tspan>
<tspan x="10" y="746">&gt; server listening on http-port 48145</tspan>
<tspan x="10" y="762">merging file:///home/travis/build/npmdoc/node-npmdoc-sql.js/tmp/build/test-report.json to test-r\</tspan>
<tspan x="10" y="778">eport</tspan>
<tspan x="10" y="794">Xlib:  extension "RANDR" missing on display ":99.0".</tspan>
<tspan x="10" y="810">[4978:0407/124800:WARNING:audio_manager.cc(314)] Multiple instances of AudioManager detected</tspan>
<tspan x="10" y="826">[4978:0407/124800:WARNING:audio_manager.cc(275)] Multiple instances of AudioManager detected</tspan>
<tspan x="10" y="842">[5007:0407/124800:ERROR:sandbox_linux.cc(343)] InitializeSandbox() called with multiple threads \</tspan>
<tspan x="10" y="858">in process gpu-process. </tspan>
<tspan x="10" y="874">[4978:0407/124800:ERROR:browser_gpu_channel_host_factory.cc(131)] Failed to create channel.</tspan>
<tspan x="10" y="890"></tspan>
<tspan x="10" y="906">browserTest - opened url http://127.0.0.1:46559?modeTest=1</tspan>
<tspan x="10" y="922"></tspan>
<tspan x="10" y="938">[4978:0407/124802:INFO:CONSOLE(250)] "----------|-----------|-----------|-----------|-----------\</tspan>
<tspan x="10" y="954">|</tspan>
<tspan x="10" y="970">File      |   % Stmts |% Branches |   % Funcs |   % Lines |</tspan>
<tspan x="10" y="986">----------|-----------|-----------|-----------|-----------|</tspan>
<tspan x="10" y="1002">----------|-----------|-----------|-----------|-----------|</tspan>
<tspan x="10" y="1018">All files |       100 |       100 |       100 |       100 |</tspan>
<tspan x="10" y="1034">----------|-----------|-----------|-----------|-----------|</tspan>
<tspan x="10" y="1050">", source: file:///home/travis/build/npmdoc/node-npmdoc-sql.js/tmp/electron.15b487503820.af6fdbd\</tspan>
<tspan x="10" y="1066">17fdde.html (250)</tspan>
<tspan x="10" y="1082">[4978:0407/124802:INFO:CONSOLE(250)] "created coverage file:///tmp/build/coverage.html/index.htm\</tspan>
<tspan x="10" y="1098">l", source: file:///home/travis/build/npmdoc/node-npmdoc-sql.js/tmp/electron.15b487503820.af6fdb\</tspan>
<tspan x="10" y="1114">d17fdde.html (250)</tspan>
<tspan x="10" y="1130">[node test-case 4 of 6 passed] - testCase_buildApp_default</tspan>
<tspan x="10" y="1146"></tspan>
<tspan x="10" y="1162">browserTest - created screenCapture file:///home/travis/build/npmdoc/node-npmdoc-sql.js/tmp/buil\</tspan>
<tspan x="10" y="1178">d/screenCapture.npmTest.browser._2Fhome_2Ftravis_2Fbuild_2Fnpmdoc_2Fnode-npmdoc-sql.js_2Ftmp_2Fb\</tspan>
<tspan x="10" y="1194">uild_2Fapidoc.html.png</tspan>
<tspan x="10" y="1210"></tspan>
<tspan x="10" y="1226">browserTest - created screenCapture file:///home/travis/build/npmdoc/node-npmdoc-sql.js/tmp/buil\</tspan>
<tspan x="10" y="1242">d/screenCapture.npmTest.browser._2Fhome_2Ftravis_2Fbuild_2Fnpmdoc_2Fnode-npmdoc-sql.js_2Ftmp_2Fb\</tspan>
<tspan x="10" y="1258">uild_2Fapidoc.html.html</tspan>
<tspan x="10" y="1274"></tspan>
<tspan x="10" y="1290">browserTest - exit-code 0 - /home/travis/build/npmdoc/node-npmdoc-sql.js/tmp/build/apidoc.html</tspan>
<tspan x="10" y="1306"></tspan>
<tspan x="10" y="1322">[node test-case 5 of 6 passed] - testCase_buildApidoc_default</tspan>
<tspan x="10" y="1338"></tspan>
<tspan x="10" y="1354">browserTest - created screenCapture file:///home/travis/build/npmdoc/node-npmdoc-sql.js/tmp/buil\</tspan>
<tspan x="10" y="1370">d/screenCapture.npmTest.browser..png</tspan>
<tspan x="10" y="1386"></tspan>
<tspan x="10" y="1402">browserTest - created screenCapture file:///home/travis/build/npmdoc/node-npmdoc-sql.js/tmp/buil\</tspan>
<tspan x="10" y="1418">d/screenCapture.npmTest.browser..html</tspan>
<tspan x="10" y="1434">[4978:0407/124816:WARNING:ipc_message_attachment_set.cc(57)] MessageAttachmentSet destroyed with\</tspan>
<tspan x="10" y="1450"> unconsumed descriptors: 0/1</tspan>
<tspan x="10" y="1466"></tspan>
<tspan x="10" y="1482">browserTest - exit-code 0 - http://127.0.0.1:46559?modeTest=1</tspan>
<tspan x="10" y="1498"></tspan>
<tspan x="10" y="1514"></tspan>
<tspan x="10" y="1530">browserTest - merged coverage from /home/travis/build/npmdoc/node-npmdoc-sql.js/tmp/coverage.npm\</tspan>
<tspan x="10" y="1546">Test.browser.%2F.json</tspan>
<tspan x="10" y="1562"></tspan>
<tspan x="10" y="1578"></tspan>
<tspan x="10" y="1594">browserTest - merging test-report from /home/travis/build/npmdoc/node-npmdoc-sql.js/tmp/test-rep\</tspan>
<tspan x="10" y="1610">ort.npmTest.browser.%2F.json</tspan>
<tspan x="10" y="1626"></tspan>
<tspan x="10" y="1642">[node test-case 6 of 6 passed] - testCase_webpage_default</tspan>
<tspan x="10" y="1658">---------------------------|-----------|-----------|-----------|-----------|</tspan>
<tspan x="10" y="1674">File                       |   % Stmts |% Branches |   % Funcs |   % Lines |</tspan>
<tspan x="10" y="1690">---------------------------|-----------|-----------|-----------|-----------|</tspan>
<tspan x="10" y="1706">   node-npmdoc-sql.js/     |       100 |       100 |       100 |       100 |</tspan>
<tspan x="10" y="1722">      example.js           |       100 |       100 |       100 |       100 |</tspan>
<tspan x="10" y="1738">      lib.npmdoc_sql.js.js |       100 |       100 |       100 |       100 |</tspan>
<tspan x="10" y="1754">      test.js              |       100 |       100 |       100 |       100 |</tspan>
<tspan x="10" y="1770">---------------------------|-----------|-----------|-----------|-----------|</tspan>
<tspan x="10" y="1786">All files                  |       100 |       100 |       100 |       100 |</tspan>
<tspan x="10" y="1802">---------------------------|-----------|-----------|-----------|-----------|</tspan>
<tspan x="10" y="1818"></tspan>
<tspan x="10" y="1834">created coverage file:///home/travis/build/npmdoc/node-npmdoc-sql.js/tmp/build/coverage.html/ind\</tspan>
<tspan x="10" y="1850">ex.html</tspan>
<tspan x="10" y="1866">merging file:///home/travis/build/npmdoc/node-npmdoc-sql.js/tmp/build/test-report.json to test-r\</tspan>
<tspan x="10" y="1882">eport</tspan>
<tspan x="10" y="1898"></tspan>
<tspan x="10" y="1914">-------------------------------------------------------</tspan>
<tspan x="10" y="1930">| test-report - buildNpmdoc - node - linux v6.10.2 - 2017-04-07T12:47:31.257Z</tspan>
<tspan x="10" y="1946">|   43272 ms            0 failed        6 passed      |</tspan>
<tspan x="10" y="1962">-------------------------------------------------------</tspan>
<tspan x="10" y="1978"></tspan>
<tspan x="10" y="1994">created test-report file:///home/travis/build/npmdoc/node-npmdoc-sql.js/tmp/build/test-report.ht\</tspan>
<tspan x="10" y="2010">ml</tspan>
<tspan x="10" y="2026"></tspan>
<tspan x="10" y="2042"></tspan>
<tspan x="10" y="2058">npmTest - 0 failed tests</tspan>
<tspan x="10" y="2074"></tspan>
<tspan x="10" y="2090"></tspan>
<tspan x="10" y="2106">[MODE_BUILD=npmTest] - 2017-04-07T12:48:17Z - EXIT_CODE - 0</tspan>
</text>
</svg>
